<svg xmlns="http://www.w3.org/2000/svg" x="0px" y="0px" width="30" height="30" viewBox="0 0 100 100">
<path fill="#fec524" d="m90.52,35.57c0-2.58-2.09-4.67-4.67-4.67s-4.67,2.09-4.67,4.67c0,.91.27,1.75.72,2.47-.23.06-.46.14-.69.23-3.69,1.5-8.93,5.08-13.67,9.4-2.82-8.26-8.64-17.13-13.25-21.18-.55-.49-1.19-.9-1.9-1.2,1.26-.8,2.11-2.2,2.11-3.8,0-2.49-2.01-4.5-4.5-4.5s-4.5,2.01-4.5,4.5c0,1.62.86,3.02,2.14,3.82-.9.38-1.72.93-2.41,1.59-4.96,4.69-10.18,13.45-12.78,20.77-4.73-4.33-9.98-7.9-13.67-9.4-.22-.09-.45-.17-.69-.23.45-.72.72-1.56.72-2.47,0-2.58-2.09-4.67-4.67-4.67s-4.67,2.09-4.67,4.67c0,2.19,1.51,4.01,3.54,4.52-.3.51-.52,1.08-.69,1.67-1.71,6.25-1.72,16.64-.31,24.29,0,.07-.01.15-.01.22,0,8.68,17.01,15.72,38,15.72s38-7.04,38-15.72c0-.09-.01-.18-.02-.28,1.4-7.64,1.39-18.01-.32-24.24-.16-.59-.39-1.16-.69-1.67,2.03-.51,3.54-2.33,3.54-4.52Z"></path><circle cx="61.5" cy="61.5" r="5.5" fill="#fff"></circle><circle cx="61.5" cy="61.5" r="2.5" fill="#4a254b"></circle><path fill="#4a254b" d="m50,73c2.57,0,4.68-1.93,4.97-4.42.03-.3-.19-.58-.49-.58-1.73,0-7.22,0-8.95,0-.31,0-.53.27-.49.58.29,2.49,2.4,4.42,4.97,4.42Z"></path><circle cx="38.5" cy="61.5" r="5.5" fill="#fff"></circle><circle cx="38.5" cy="61.5" r="2.5" fill="#4a254b"></circle>
</svg>